# xmcd
#
# Track frame offsets:
#	150
#	7770
#	26927
#	72606
#	192225
#	216478
#	232034
#	261922
#	303657
#
# Disc length: 4354 seconds
#
# Revision: 1
# Processed by: cddbd v1.5.2PL0 Copyright (c) Steve Scherf et al.
# Submitted via: audiograbber 1.83.01
#
DISCID=87110009
DTITLE=Grateful Dead - 74-05-14 Adams Field House, Missoula MT
DYEAR=1900
DGENRE=
TTITLE0=WRS Prelude
TTITLE1=WRS Part One
TTITLE2=Let It Grow
TTITLE3=Dark Star
TTITLE4=China Doll
TTITLE5=Promised Land
TTITLE6=Not Fade Away
TTITLE7=GDTRFB
TTITLE8=One More Saturday Night
EXTD=
EXTT0=
EXTT1=
EXTT2=
EXTT3=
EXTT4=
EXTT5=
EXTT6=
EXTT7=
EXTT8=
PLAYORDER=
